<svg xmlns="http://www.w3.org/2000/svg" width="200" height="200" viewBox="0 0 200 200">
  <g fill="none" stroke="#8B9A7B" stroke-width="1.5" stroke-linecap="round" stroke-opacity="0.15">
    <path d="M30 40 c-10-10-10 10 0 15 c10-5 10-25 0-15 Z" transform="rotate(-15 30 40)"/>
    <path d="M170 160 c-8-8-8 8 0 12 c8-4 8-20 0-12 Z" transform="rotate(10 170 160)"/>
    
    <path d="M100 20 Q100 30 90 30 Q100 30 100 40 Q100 30 110 30 Q100 30 100 20Z"/>
    <path d="M30 150 Q30 155 25 155 Q30 155 30 160 Q30 155 35 155 Q30 155 30 150Z" stroke-width="1"/>
    
    <path d="M150 50 c10-10 20 0 10 15 s-15 10-5 25" stroke="#E08A82"/> <path d="M50 100 c-10 5 0 20 15 10 c10-5 5-20-10-15Z" stroke-width="1"/> <path d="M180 90 c5 10-5 15-10 10 s0-15 10-10 Z" stroke-width="1"/>
    
    <circle cx="80" cy="70" r="1.5" fill="#A3A3A3" stroke="none"/>
    <circle cx="120" cy="130" r="1.5" fill="#E08A82" stroke="none"/>
  </g>
</svg>
